<svg width="248.35244140625px" height="83.62248535156249px" xmlns="http://www.w3.org/2000/svg" viewBox="125.823779296875 33.188757324218756 248.35244140625 83.62248535156249" style="background: rgba(134, 65, 65, 0);" preserveAspectRatio="xMidYMid"><defs><linearGradient id="editing-outline-gradient" x1="1.3090169943749475" x2="-0.30901699437494745" y1="1.087785252292473" y2="-0.08778525229247303"><stop offset="0" stop-color="#ee4208"></stop><stop offset="1" stop-color="#4139ff"></stop></linearGradient><filter id="editing-outline" x="-100%" y="-100%" width="300%" height="300%"><feMorphology in="SourceGraphic" operator="dilate" radius="6" result="outline"></feMorphology><feComposite operator="out" in="outline" in2="SourceAlpha"></feComposite></filter></defs><g filter="url(#editing-outline)"><g transform="translate(166.18937650322914, 89.01999950408936)"><path d="M8.84 0L0.32 0L4.88-24.32L5.32-26.40L13.88-26.40L8.84 0ZM25.08-2.36L25.08-2.36L25.08-2.36Q24 0.80 19.84 0.80L19.84 0.80L19.84 0.80Q16.76 0.80 14.64-2.88L14.64-2.88L14.64-2.88Q12.48-6.56 12.08-12.56L12.08-12.56L12.08-12.56Q16.48-20.60 19.52-23.92L19.52-23.92L19.52-23.92Q22.44-27.08 25.48-27.08L25.48-27.08L25.48-27.08Q27.12-27.08 28.30-26.20L28.30-26.20L28.30-26.20Q29.48-25.32 29.76-23.92L29.76-23.92L29.76-23.92Q28.40-23.36 27.76-22.92L27.76-22.92L27.76-22.92Q26.16-21.72 24-19.04L24-19.04L20.36-14.68L20.36-14.68Q19.48-13.64 19.12-13.16L19.12-13.16L19.12-13.16Q19.72-9.80 21.52-6.48L21.52-6.48L21.52-6.48Q23.24-3.32 25.08-2.36ZM28.76-6.48L28.76-6.48L28.76-6.48Q27.48-7.40 27.48-9.16L27.48-9.16L27.48-9.16Q27.48-10.12 27.96-10.90L27.96-10.90L27.96-10.90Q28.44-11.68 29.40-11.80L29.40-11.80L37.28-11.80L37.28-11.80Q38.60-11.80 39-12.60L39-12.60L39-12.60Q39.64-12.24 39.92-11.48L39.92-11.48L39.92-11.48Q40.20-10.72 40.20-9.92L40.20-9.92L40.20-9.92Q40.20-9.12 39.58-8.34L39.58-8.34L39.58-8.34Q38.96-7.56 38.04-7.48L38.04-7.48L30.72-7.48L30.72-7.48Q29.88-7.48 29.48-7.22L29.48-7.22L29.48-7.22Q29.08-6.96 28.76-6.48ZM58.56-18.48L58.56-18.48L58.56-18.48Q59.16-19.68 59.16-20.80L59.16-20.80L59.16-20.80Q59.16-21.92 59.04-22.54L59.04-22.54L59.04-22.54Q58.92-23.16 58.64-23.64L58.64-23.64L58.64-23.64Q58.04-24.68 56.84-24.68L56.84-24.68L56.84-24.68Q55.36-24.68 54.16-23.60L54.16-23.60L54.16-23.60Q52.88-22.48 52.88-20.72L52.88-20.72L52.88-20.72Q52.88-19.60 53.66-18.74L53.66-18.74L53.66-18.74Q54.44-17.88 55.64-17.08L55.64-17.08L55.64-17.08Q56.84-16.28 58.20-15.48L58.20-15.48L58.20-15.48Q59.56-14.68 60.76-13.72L60.76-13.72L60.76-13.72Q63.52-11.52 63.52-8.56L63.52-8.56L63.52-8.56Q63.52-6.56 62.46-4.86L62.46-4.86L62.46-4.86Q61.40-3.16 59.64-1.92L59.64-1.92L59.64-1.92Q55.80 0.80 50.72 0.80L50.72 0.80L50.72 0.80Q46.60 0.80 44.48-0.54L44.48-0.54L44.48-0.54Q42.36-1.88 42.36-3.92L42.36-3.92L42.36-3.92Q42.36-7.56 45.20-8.48L45.20-8.48L45.20-8.48Q46-8.76 47.22-8.76L47.22-8.76L47.22-8.76Q48.44-8.76 49.84-8.24L49.84-8.24L49.84-8.24Q49.20-6.60 49.20-5.12L49.20-5.12L49.20-5.12Q49.20-1.92 51.48-1.92L51.48-1.92L51.48-1.92Q52.96-1.92 54.18-3L54.18-3L54.18-3Q55.40-4.08 55.40-5.30L55.40-5.30L55.40-5.30Q55.40-6.52 54.62-7.40L54.62-7.40L54.62-7.40Q53.84-8.28 52.68-8.98L52.68-8.98L52.68-8.98Q51.52-9.68 50.18-10.36L50.18-10.36L50.18-10.36Q48.84-11.04 47.68-12L47.68-12L47.68-12Q44.96-14.20 44.96-17.72L44.96-17.72L44.96-17.72Q44.96-20 46.08-21.78L46.08-21.78L46.08-21.78Q47.20-23.56 49-24.76L49-24.76L49-24.76Q52.60-27.20 57.02-27.20L57.02-27.20L57.02-27.20Q61.44-27.20 63.58-25.88L63.58-25.88L63.58-25.88Q65.72-24.56 65.72-22.32L65.72-22.32L65.72-22.32Q65.72-20.36 64.20-19.12L64.20-19.12L64.20-19.12Q62.88-18.08 61.28-18.08L61.28-18.08L61.28-18.08Q59.68-18.08 58.56-18.48ZM81.48-3L81.48-3L81.48-3Q81.48-5.80 82.60-11.40L82.60-11.40L76.68-11.40L74.48 0L66.12 0L71.20-26.40L79.64-26.40L77.32-14.60L83.24-14.60L85.44-26.40L93.88-26.40L93.88-26.40Q93.32-23.44 92.60-20.12L92.60-20.12L91.24-13.60L91.24-13.60Q89.72-6 89.72-2.68L89.72-2.68L89.72-2.68Q89.72-1.32 90.16-0.56L90.16-0.56L90.16-0.56Q88.16 0.80 85.82 0.80L85.82 0.80L85.82 0.80Q83.48 0.80 82.48-0.32L82.48-0.32L82.48-0.32Q81.48-1.44 81.48-3ZM95.44-9.76L95.44-9.76L95.44-9.76Q95.44-17.32 99.36-22.08L99.36-22.08L99.36-22.08Q103.52-27.24 110.76-27.24L110.76-27.24L110.76-27.24Q116-27.24 118.64-24.70L118.64-24.70L118.64-24.70Q121.28-22.16 121.28-16.80L121.28-16.80L121.28-16.80Q121.28-8.64 117.12-3.88L117.12-3.88L117.12-3.88Q113 0.80 106.08 0.80L106.08 0.80L106.08 0.80Q100.68 0.80 98.06-1.90L98.06-1.90L98.06-1.90Q95.44-4.60 95.44-9.76ZM105.96-18.04L105.96-18.04L105.96-18.04Q104.16-10.84 104.16-5.16L104.16-5.16L104.16-5.16Q104.16-3.80 104.62-2.92L104.62-2.92L104.62-2.92Q105.08-2.04 106.30-2.04L106.30-2.04L106.30-2.04Q107.52-2.04 108.28-2.62L108.28-2.62L108.28-2.62Q109.04-3.20 109.64-4.52L109.64-4.52L109.64-4.52Q110.60-6.68 111.50-11.26L111.50-11.26L111.50-11.26Q112.40-15.84 112.48-17.74L112.48-17.74L112.48-17.74Q112.56-19.64 112.56-21.08L112.56-21.08L112.56-21.08Q112.56-22.52 112.12-23.44L112.12-23.44L112.12-23.44Q111.68-24.36 110.50-24.36L110.50-24.36L110.50-24.36Q109.32-24.36 108.52-23.64L108.52-23.64L108.52-23.64Q107.04-22.28 105.96-18.04ZM140.32-6.16L140.32-6.16L140.32-6.16Q141.08-5.20 141.08-3.64L141.08-3.64L141.08-3.64Q141.08-1.48 139.48-0.34L139.48-0.34L139.48-0.34Q137.88 0.80 135.36 0.80L135.36 0.80L135.36 0.80Q133.92 0.80 131.72 0.48L131.72 0.48L131.72 0.48Q127.40-0.20 126.08-0.20L126.08-0.20L126.08-0.20Q124.76-0.20 124.24-0.14L124.24-0.14L124.24-0.14Q123.72-0.08 122.88 0L122.88 0L127.80-26.40L145.04-26.40L145.04-26.40Q145.04-23.96 143.86-22.68L143.86-22.68L143.86-22.68Q142.68-21.40 140.36-21.40L140.36-21.40L140.36-21.40Q138.04-21.40 135.68-22.48L135.68-22.48L134.44-15.48L141.56-15.48L141.56-15.48Q141.56-13.36 140.52-12.18L140.52-12.18L140.52-12.18Q139.48-11 137.74-11L137.74-11L137.74-11Q136-11 134.92-11.40L134.92-11.40L134.92-11.40Q133.84-11.80 133.72-11.92L133.72-11.92L132.28-4.36L132.28-4.36Q133.24-4.24 135.04-4.24L135.04-4.24L135.04-4.24Q138.12-4.24 140.32-6.16ZM160.36-18.48L160.36-18.48L160.36-18.48Q160.96-19.68 160.96-20.80L160.96-20.80L160.96-20.80Q160.96-21.92 160.84-22.54L160.84-22.54L160.84-22.54Q160.72-23.16 160.44-23.64L160.44-23.64L160.44-23.64Q159.84-24.68 158.64-24.68L158.64-24.68L158.64-24.68Q157.16-24.68 155.96-23.60L155.96-23.60L155.96-23.60Q154.68-22.48 154.68-20.72L154.68-20.72L154.68-20.72Q154.68-19.60 155.46-18.74L155.46-18.74L155.46-18.74Q156.24-17.88 157.44-17.08L157.44-17.08L157.44-17.08Q158.64-16.28 160-15.48L160-15.48L160-15.48Q161.36-14.68 162.56-13.72L162.56-13.72L162.56-13.72Q165.32-11.52 165.32-8.56L165.32-8.56L165.32-8.56Q165.32-6.56 164.26-4.86L164.26-4.86L164.26-4.86Q163.20-3.16 161.44-1.92L161.44-1.92L161.44-1.92Q157.60 0.80 152.52 0.80L152.52 0.80L152.52 0.80Q148.40 0.80 146.28-0.54L146.28-0.54L146.28-0.54Q144.16-1.88 144.16-3.92L144.16-3.92L144.16-3.92Q144.16-7.56 147-8.48L147-8.48L147-8.48Q147.80-8.76 149.02-8.76L149.02-8.76L149.02-8.76Q150.24-8.76 151.64-8.24L151.64-8.24L151.64-8.24Q151-6.60 151-5.12L151-5.12L151-5.12Q151-1.92 153.28-1.92L153.28-1.92L153.28-1.92Q154.76-1.92 155.98-3L155.98-3L155.98-3Q157.20-4.08 157.20-5.30L157.20-5.30L157.20-5.30Q157.20-6.52 156.42-7.40L156.42-7.40L156.42-7.40Q155.64-8.28 154.48-8.98L154.48-8.98L154.48-8.98Q153.32-9.68 151.98-10.36L151.98-10.36L151.98-10.36Q150.64-11.04 149.48-12L149.48-12L149.48-12Q146.76-14.20 146.76-17.72L146.76-17.72L146.76-17.72Q146.76-20 147.88-21.78L147.88-21.78L147.88-21.78Q149-23.56 150.80-24.76L150.80-24.76L150.80-24.76Q154.40-27.20 158.82-27.20L158.82-27.20L158.82-27.20Q163.24-27.20 165.38-25.88L165.38-25.88L165.38-25.88Q167.52-24.56 167.52-22.32L167.52-22.32L167.52-22.32Q167.52-20.36 166-19.12L166-19.12L166-19.12Q164.68-18.08 163.08-18.08L163.08-18.08L163.08-18.08Q161.48-18.08 160.36-18.48Z" fill="url(#editing-outline-gradient)"></path></g></g><style>text {
  font-size: 64px;
  font-family: Arial Black;
  dominant-baseline: central;
  text-anchor: middle;
}</style></svg>