<svg width="337.092529296875px" height="122.021240234375px" xmlns="http://www.w3.org/2000/svg" viewBox="81.4537353515625 13.9893798828125 337.092529296875 122.021240234375" style="background: rgba(0, 0, 0, 0);" preserveAspectRatio="xMidYMid"><defs><linearGradient id="editing-outline-gradient" x1="-0.41354545764260087" x2="1.4135454576426008" y1="0.09326335692419985" y2="0.9067366430758002"><stop offset="0" stop-color="#ee4208"></stop><stop offset="1" stop-color="#4139ff"></stop></linearGradient><filter id="editing-outline" x="-100%" y="-100%" width="300%" height="300%"><feMorphology in="SourceGraphic" operator="dilate" radius="1" result="outline"></feMorphology><feComposite operator="out" in="outline" in2="SourceAlpha"></feComposite></filter></defs><g filter="url(#editing-outline)"><g transform="translate(135.02749848365784, 97.42218780517578)"><path d="M14.14 0L0.51 0L7.81-38.91L8.51-42.24L22.21-42.24L14.14 0ZM40.13-3.78L40.13-3.78L40.13-3.78Q38.40 1.28 31.74 1.28L31.74 1.28L31.74 1.28Q26.82 1.28 23.42-4.61L23.42-4.61L23.42-4.61Q19.97-10.50 19.33-20.10L19.33-20.10L19.33-20.10Q26.37-32.96 31.23-38.27L31.23-38.27L31.23-38.27Q35.90-43.33 40.77-43.33L40.77-43.33L40.77-43.33Q43.39-43.33 45.28-41.92L45.28-41.92L45.28-41.92Q47.17-40.51 47.62-38.27L47.62-38.27L47.62-38.27Q45.44-37.38 44.42-36.67L44.42-36.67L44.42-36.67Q41.86-34.75 38.40-30.46L38.40-30.46L32.58-23.49L32.58-23.49Q31.17-21.82 30.59-21.06L30.59-21.06L30.59-21.06Q31.55-15.68 34.43-10.37L34.43-10.37L34.43-10.37Q37.18-5.31 40.13-3.78ZM46.02-10.37L46.02-10.37L46.02-10.37Q43.97-11.84 43.97-14.66L43.97-14.66L43.97-14.66Q43.97-16.19 44.74-17.44L44.74-17.44L44.74-17.44Q45.50-18.69 47.04-18.88L47.04-18.88L59.65-18.88L59.65-18.88Q61.76-18.88 62.40-20.16L62.40-20.16L62.40-20.16Q63.42-19.58 63.87-18.37L63.87-18.37L63.87-18.37Q64.32-17.15 64.32-15.87L64.32-15.87L64.32-15.87Q64.32-14.59 63.33-13.34L63.33-13.34L63.33-13.34Q62.34-12.10 60.86-11.97L60.86-11.97L49.15-11.97L49.15-11.97Q47.81-11.97 47.17-11.55L47.17-11.55L47.17-11.55Q46.53-11.14 46.02-10.37ZM93.70-29.57L93.70-29.57L93.70-29.57Q94.66-31.49 94.66-33.28L94.66-33.28L94.66-33.28Q94.66-35.07 94.46-36.06L94.46-36.06L94.46-36.06Q94.27-37.06 93.82-37.82L93.82-37.82L93.82-37.82Q92.86-39.49 90.94-39.49L90.94-39.49L90.94-39.49Q88.58-39.49 86.66-37.76L86.66-37.76L86.66-37.76Q84.61-35.97 84.61-33.15L84.61-33.15L84.61-33.15Q84.61-31.36 85.86-29.98L85.86-29.98L85.86-29.98Q87.10-28.61 89.02-27.33L89.02-27.33L89.02-27.33Q90.94-26.05 93.12-24.77L93.12-24.77L93.12-24.77Q95.30-23.49 97.22-21.95L97.22-21.95L97.22-21.95Q101.63-18.43 101.63-13.70L101.63-13.70L101.63-13.70Q101.63-10.50 99.94-7.78L99.94-7.78L99.94-7.78Q98.24-5.06 95.42-3.07L95.42-3.07L95.42-3.07Q89.28 1.28 81.15 1.28L81.15 1.28L81.15 1.28Q74.56 1.28 71.17-0.86L71.17-0.86L71.17-0.86Q67.78-3.01 67.78-6.27L67.78-6.27L67.78-6.27Q67.78-12.10 72.32-13.57L72.32-13.57L72.32-13.57Q73.60-14.02 75.55-14.02L75.55-14.02L75.55-14.02Q77.50-14.02 79.74-13.18L79.74-13.18L79.74-13.18Q78.72-10.56 78.72-8.19L78.72-8.19L78.72-8.19Q78.72-3.07 82.37-3.07L82.37-3.07L82.37-3.07Q84.74-3.07 86.69-4.80L86.69-4.80L86.69-4.80Q88.64-6.53 88.64-8.48L88.64-8.48L88.64-8.48Q88.64-10.43 87.39-11.84L87.39-11.84L87.39-11.84Q86.14-13.25 84.29-14.37L84.29-14.37L84.29-14.37Q82.43-15.49 80.29-16.58L80.29-16.58L80.29-16.58Q78.14-17.66 76.29-19.20L76.29-19.20L76.29-19.20Q71.94-22.72 71.94-28.35L71.94-28.35L71.94-28.35Q71.94-32 73.73-34.85L73.73-34.85L73.73-34.85Q75.52-37.70 78.40-39.62L78.40-39.62L78.40-39.62Q84.16-43.52 91.23-43.52L91.23-43.52L91.23-43.52Q98.30-43.52 101.73-41.41L101.73-41.41L101.73-41.41Q105.15-39.30 105.15-35.71L105.15-35.71L105.15-35.71Q105.15-32.58 102.72-30.59L102.72-30.59L102.72-30.59Q100.61-28.93 98.05-28.93L98.05-28.93L98.05-28.93Q95.49-28.93 93.70-29.57ZM130.37-4.80L130.37-4.80L130.37-4.80Q130.37-9.28 132.16-18.24L132.16-18.24L122.69-18.24L119.17 0L105.79 0L113.92-42.24L127.42-42.24L123.71-23.36L133.18-23.36L136.70-42.24L150.21-42.24L150.21-42.24Q149.31-37.50 148.16-32.19L148.16-32.19L145.98-21.76L145.98-21.76Q143.55-9.60 143.55-4.29L143.55-4.29L143.55-4.29Q143.55-2.11 144.26-0.90L144.26-0.90L144.26-0.90Q141.06 1.28 137.31 1.28L137.31 1.28L137.31 1.28Q133.57 1.28 131.97-0.51L131.97-0.51L131.97-0.51Q130.37-2.30 130.37-4.80ZM152.70-15.62L152.70-15.62L152.70-15.62Q152.70-27.71 158.98-35.33L158.98-35.33L158.98-35.33Q165.63-43.58 177.22-43.58L177.22-43.58L177.22-43.58Q185.60-43.58 189.82-39.52L189.82-39.52L189.82-39.52Q194.05-35.46 194.05-26.88L194.05-26.88L194.05-26.88Q194.05-13.82 187.39-6.21L187.39-6.21L187.39-6.21Q180.80 1.28 169.73 1.28L169.73 1.28L169.73 1.28Q161.09 1.28 156.90-3.04L156.90-3.04L156.90-3.04Q152.70-7.36 152.70-15.62ZM169.54-28.86L169.54-28.86L169.54-28.86Q166.66-17.34 166.66-8.26L166.66-8.26L166.66-8.26Q166.66-6.08 167.39-4.67L167.39-4.67L167.39-4.67Q168.13-3.26 170.08-3.26L170.08-3.26L170.08-3.26Q172.03-3.26 173.25-4.19L173.25-4.19L173.25-4.19Q174.46-5.12 175.42-7.23L175.42-7.23L175.42-7.23Q176.96-10.69 178.40-18.02L178.40-18.02L178.40-18.02Q179.84-25.34 179.97-28.38L179.97-28.38L179.97-28.38Q180.10-31.42 180.10-33.73L180.10-33.73L180.10-33.73Q180.10-36.03 179.39-37.50L179.39-37.50L179.39-37.50Q178.69-38.98 176.80-38.98L176.80-38.98L176.80-38.98Q174.91-38.98 173.63-37.82L173.63-37.82L173.63-37.82Q171.26-35.65 169.54-28.86ZM224.51-9.86L224.51-9.86L224.51-9.86Q225.73-8.32 225.73-5.82L225.73-5.82L225.73-5.82Q225.73-2.37 223.17-0.54L223.17-0.54L223.17-0.54Q220.61 1.28 216.58 1.28L216.58 1.28L216.58 1.28Q214.27 1.28 210.75 0.77L210.75 0.77L210.75 0.77Q203.84-0.32 201.73-0.32L201.73-0.32L201.73-0.32Q199.62-0.32 198.78-0.22L198.78-0.22L198.78-0.22Q197.95-0.13 196.61 0L196.61 0L204.48-42.24L232.06-42.24L232.06-42.24Q232.06-38.34 230.18-36.29L230.18-36.29L230.18-36.29Q228.29-34.24 224.58-34.24L224.58-34.24L224.58-34.24Q220.86-34.24 217.09-35.97L217.09-35.97L215.10-24.77L226.50-24.77L226.50-24.77Q226.50-21.38 224.83-19.49L224.83-19.49L224.83-19.49Q223.17-17.60 220.38-17.60L220.38-17.60L220.38-17.60Q217.60-17.60 215.87-18.24L215.87-18.24L215.87-18.24Q214.14-18.88 213.95-19.07L213.95-19.07L211.65-6.98L211.65-6.98Q213.18-6.78 216.06-6.78L216.06-6.78L216.06-6.78Q220.99-6.78 224.51-9.86Z" fill="url(#editing-outline-gradient)"></path></g></g><style>text {
  font-size: 18px;
  font-family: Arial Black;
  dominant-baseline: central;
  text-anchor: middle;
}</style></svg>